<mxfile host="app.diagrams.net" modified="2021-05-20T00:30:47.353Z" agent="5.0 (Windows NT 10.0; Win64; x64) AppleWebKit/537.36 (KHTML, like Gecko) Chrome/90.0.4430.212 Safari/537.36" etag="CsC3nupooSZvSM8S_CLv" version="14.6.13" type="github">
  <diagram id="wDCAlyBgjuqHMjaO5mIW" name="Page-1">
    <mxGraphModel dx="1021" dy="529" grid="1" gridSize="10" guides="1" tooltips="1" connect="1" arrows="1" fold="1" page="1" pageScale="1" pageWidth="827" pageHeight="1169" math="0" shadow="0">
      <root>
        <mxCell id="0" />
        <mxCell id="1" parent="0" />
        <mxCell id="Hybq58trlB87jNepz2p2-28" style="edgeStyle=orthogonalEdgeStyle;rounded=0;orthogonalLoop=1;jettySize=auto;html=1;entryX=0.5;entryY=0;entryDx=0;entryDy=0;" parent="1" source="Hybq58trlB87jNepz2p2-1" target="Hybq58trlB87jNepz2p2-11" edge="1">
          <mxGeometry relative="1" as="geometry" />
        </mxCell>
        <mxCell id="Hybq58trlB87jNepz2p2-1" value="cek&amp;nbsp;&lt;i&gt;pattern&lt;/i&gt;&amp;nbsp;A" style="rounded=0;whiteSpace=wrap;html=1;" parent="1" vertex="1">
          <mxGeometry x="40" y="400" width="120" height="40" as="geometry" />
        </mxCell>
        <mxCell id="Hybq58trlB87jNepz2p2-23" style="edgeStyle=orthogonalEdgeStyle;rounded=0;orthogonalLoop=1;jettySize=auto;html=1;entryX=0.5;entryY=0;entryDx=0;entryDy=0;" parent="1" source="Hybq58trlB87jNepz2p2-3" target="Hybq58trlB87jNepz2p2-10" edge="1">
          <mxGeometry relative="1" as="geometry" />
        </mxCell>
        <mxCell id="Hybq58trlB87jNepz2p2-3" value="input &lt;i&gt;pattern&lt;/i&gt; C" style="shape=parallelogram;perimeter=parallelogramPerimeter;whiteSpace=wrap;html=1;fixedSize=1;" parent="1" vertex="1">
          <mxGeometry x="40" y="240" width="120" height="40" as="geometry" />
        </mxCell>
        <mxCell id="Hybq58trlB87jNepz2p2-22" style="edgeStyle=orthogonalEdgeStyle;rounded=0;orthogonalLoop=1;jettySize=auto;html=1;exitX=0.5;exitY=1;exitDx=0;exitDy=0;" parent="1" source="Hybq58trlB87jNepz2p2-5" target="Hybq58trlB87jNepz2p2-3" edge="1">
          <mxGeometry relative="1" as="geometry" />
        </mxCell>
        <mxCell id="Hybq58trlB87jNepz2p2-5" value="input teks ABCD" style="shape=parallelogram;perimeter=parallelogramPerimeter;whiteSpace=wrap;html=1;fixedSize=1;" parent="1" vertex="1">
          <mxGeometry x="40" y="160" width="120" height="40" as="geometry" />
        </mxCell>
        <mxCell id="FpsX3NhUqObJQr1GBaPx-6" style="edgeStyle=orthogonalEdgeStyle;rounded=0;orthogonalLoop=1;jettySize=auto;html=1;" edge="1" parent="1" source="Hybq58trlB87jNepz2p2-7" target="FpsX3NhUqObJQr1GBaPx-4">
          <mxGeometry relative="1" as="geometry" />
        </mxCell>
        <mxCell id="Hybq58trlB87jNepz2p2-7" value="&lt;i&gt;pattern&lt;/i&gt;&amp;nbsp;ditemukan" style="rounded=0;whiteSpace=wrap;html=1;" parent="1" vertex="1">
          <mxGeometry x="40" y="560" width="120" height="40" as="geometry" />
        </mxCell>
        <mxCell id="FpsX3NhUqObJQr1GBaPx-7" style="edgeStyle=orthogonalEdgeStyle;rounded=0;orthogonalLoop=1;jettySize=auto;html=1;entryX=1;entryY=0.5;entryDx=0;entryDy=0;entryPerimeter=0;" edge="1" parent="1" source="Hybq58trlB87jNepz2p2-8" target="FpsX3NhUqObJQr1GBaPx-4">
          <mxGeometry relative="1" as="geometry">
            <Array as="points">
              <mxPoint x="580" y="645" />
            </Array>
          </mxGeometry>
        </mxCell>
        <mxCell id="Hybq58trlB87jNepz2p2-8" value="&lt;i&gt;pattern&lt;/i&gt;&amp;nbsp;tidak ditemukan" style="rounded=0;whiteSpace=wrap;html=1;" parent="1" vertex="1">
          <mxGeometry x="520" y="580" width="120" height="40" as="geometry" />
        </mxCell>
        <mxCell id="Hybq58trlB87jNepz2p2-24" style="edgeStyle=orthogonalEdgeStyle;rounded=0;orthogonalLoop=1;jettySize=auto;html=1;exitX=0.5;exitY=1;exitDx=0;exitDy=0;entryX=0.5;entryY=0;entryDx=0;entryDy=0;" parent="1" source="Hybq58trlB87jNepz2p2-10" target="Hybq58trlB87jNepz2p2-1" edge="1">
          <mxGeometry relative="1" as="geometry" />
        </mxCell>
        <mxCell id="Hybq58trlB87jNepz2p2-26" style="edgeStyle=orthogonalEdgeStyle;rounded=0;orthogonalLoop=1;jettySize=auto;html=1;entryX=0;entryY=0.5;entryDx=0;entryDy=0;entryPerimeter=0;" parent="1" source="Hybq58trlB87jNepz2p2-10" target="FpsX3NhUqObJQr1GBaPx-4" edge="1">
          <mxGeometry relative="1" as="geometry">
            <Array as="points">
              <mxPoint x="10" y="345" />
              <mxPoint x="10" y="645" />
            </Array>
            <mxPoint x="80.00000000000023" y="660" as="targetPoint" />
          </mxGeometry>
        </mxCell>
        <mxCell id="Hybq58trlB87jNepz2p2-10" value="&lt;span&gt;cek len(&lt;/span&gt;&lt;i&gt;pattern&lt;/i&gt;&lt;span&gt;)&lt;br&gt;&amp;lt; len(teks)&lt;/span&gt;" style="rhombus;whiteSpace=wrap;html=1;" parent="1" vertex="1">
          <mxGeometry x="40" y="320" width="120" height="50" as="geometry" />
        </mxCell>
        <mxCell id="Hybq58trlB87jNepz2p2-29" style="edgeStyle=orthogonalEdgeStyle;rounded=0;orthogonalLoop=1;jettySize=auto;html=1;entryX=0.5;entryY=0;entryDx=0;entryDy=0;" parent="1" source="Hybq58trlB87jNepz2p2-11" target="Hybq58trlB87jNepz2p2-7" edge="1">
          <mxGeometry relative="1" as="geometry" />
        </mxCell>
        <mxCell id="Hybq58trlB87jNepz2p2-30" style="edgeStyle=orthogonalEdgeStyle;rounded=0;orthogonalLoop=1;jettySize=auto;html=1;exitX=1;exitY=0.5;exitDx=0;exitDy=0;entryX=0;entryY=0.5;entryDx=0;entryDy=0;" parent="1" source="Hybq58trlB87jNepz2p2-11" target="Hybq58trlB87jNepz2p2-13" edge="1">
          <mxGeometry relative="1" as="geometry" />
        </mxCell>
        <mxCell id="Hybq58trlB87jNepz2p2-11" value="cocok" style="rhombus;whiteSpace=wrap;html=1;" parent="1" vertex="1">
          <mxGeometry x="40" y="480" width="120" height="40" as="geometry" />
        </mxCell>
        <mxCell id="Hybq58trlB87jNepz2p2-31" style="edgeStyle=orthogonalEdgeStyle;rounded=0;orthogonalLoop=1;jettySize=auto;html=1;entryX=0.5;entryY=0;entryDx=0;entryDy=0;" parent="1" source="Hybq58trlB87jNepz2p2-13" target="Hybq58trlB87jNepz2p2-14" edge="1">
          <mxGeometry relative="1" as="geometry" />
        </mxCell>
        <mxCell id="Hybq58trlB87jNepz2p2-13" value="cek&amp;nbsp;&lt;i&gt;pattern&lt;/i&gt;&amp;nbsp;B" style="rounded=0;whiteSpace=wrap;html=1;" parent="1" vertex="1">
          <mxGeometry x="200" y="400" width="120" height="40" as="geometry" />
        </mxCell>
        <mxCell id="Hybq58trlB87jNepz2p2-32" style="edgeStyle=orthogonalEdgeStyle;rounded=0;orthogonalLoop=1;jettySize=auto;html=1;entryX=0.5;entryY=0;entryDx=0;entryDy=0;" parent="1" source="Hybq58trlB87jNepz2p2-14" target="Hybq58trlB87jNepz2p2-7" edge="1">
          <mxGeometry relative="1" as="geometry">
            <Array as="points">
              <mxPoint x="260" y="540" />
              <mxPoint x="100" y="540" />
            </Array>
          </mxGeometry>
        </mxCell>
        <mxCell id="Hybq58trlB87jNepz2p2-41" style="edgeStyle=orthogonalEdgeStyle;rounded=0;orthogonalLoop=1;jettySize=auto;html=1;entryX=0;entryY=0.5;entryDx=0;entryDy=0;" parent="1" source="Hybq58trlB87jNepz2p2-14" target="Hybq58trlB87jNepz2p2-15" edge="1">
          <mxGeometry relative="1" as="geometry" />
        </mxCell>
        <mxCell id="Hybq58trlB87jNepz2p2-14" value="cocok" style="rhombus;whiteSpace=wrap;html=1;" parent="1" vertex="1">
          <mxGeometry x="200" y="480" width="120" height="40" as="geometry" />
        </mxCell>
        <mxCell id="Hybq58trlB87jNepz2p2-42" style="edgeStyle=orthogonalEdgeStyle;rounded=0;orthogonalLoop=1;jettySize=auto;html=1;entryX=0.5;entryY=0;entryDx=0;entryDy=0;" parent="1" source="Hybq58trlB87jNepz2p2-15" target="Hybq58trlB87jNepz2p2-16" edge="1">
          <mxGeometry relative="1" as="geometry" />
        </mxCell>
        <mxCell id="Hybq58trlB87jNepz2p2-15" value="cek&amp;nbsp;&lt;i&gt;pattern&lt;/i&gt;&amp;nbsp;C" style="rounded=0;whiteSpace=wrap;html=1;" parent="1" vertex="1">
          <mxGeometry x="360" y="400" width="120" height="40" as="geometry" />
        </mxCell>
        <mxCell id="Hybq58trlB87jNepz2p2-33" style="edgeStyle=orthogonalEdgeStyle;rounded=0;orthogonalLoop=1;jettySize=auto;html=1;" parent="1" source="Hybq58trlB87jNepz2p2-16" target="Hybq58trlB87jNepz2p2-7" edge="1">
          <mxGeometry relative="1" as="geometry">
            <Array as="points">
              <mxPoint x="420" y="540" />
              <mxPoint x="100" y="540" />
            </Array>
          </mxGeometry>
        </mxCell>
        <mxCell id="Hybq58trlB87jNepz2p2-43" style="edgeStyle=orthogonalEdgeStyle;rounded=0;orthogonalLoop=1;jettySize=auto;html=1;entryX=0;entryY=0.5;entryDx=0;entryDy=0;" parent="1" source="Hybq58trlB87jNepz2p2-16" target="Hybq58trlB87jNepz2p2-17" edge="1">
          <mxGeometry relative="1" as="geometry" />
        </mxCell>
        <mxCell id="Hybq58trlB87jNepz2p2-16" value="cocok" style="rhombus;whiteSpace=wrap;html=1;" parent="1" vertex="1">
          <mxGeometry x="360" y="480" width="120" height="40" as="geometry" />
        </mxCell>
        <mxCell id="Hybq58trlB87jNepz2p2-44" style="edgeStyle=orthogonalEdgeStyle;rounded=0;orthogonalLoop=1;jettySize=auto;html=1;" parent="1" source="Hybq58trlB87jNepz2p2-17" target="Hybq58trlB87jNepz2p2-18" edge="1">
          <mxGeometry relative="1" as="geometry" />
        </mxCell>
        <mxCell id="Hybq58trlB87jNepz2p2-17" value="cek&amp;nbsp;&lt;i&gt;pattern&lt;/i&gt;&amp;nbsp;D" style="rounded=0;whiteSpace=wrap;html=1;" parent="1" vertex="1">
          <mxGeometry x="520" y="400" width="120" height="40" as="geometry" />
        </mxCell>
        <mxCell id="Hybq58trlB87jNepz2p2-34" style="edgeStyle=orthogonalEdgeStyle;rounded=0;orthogonalLoop=1;jettySize=auto;html=1;entryX=0.5;entryY=0;entryDx=0;entryDy=0;" parent="1" source="Hybq58trlB87jNepz2p2-18" target="Hybq58trlB87jNepz2p2-7" edge="1">
          <mxGeometry relative="1" as="geometry">
            <Array as="points">
              <mxPoint x="580" y="540" />
              <mxPoint x="100" y="540" />
            </Array>
          </mxGeometry>
        </mxCell>
        <mxCell id="Hybq58trlB87jNepz2p2-46" style="edgeStyle=orthogonalEdgeStyle;rounded=0;orthogonalLoop=1;jettySize=auto;html=1;entryX=0.5;entryY=0;entryDx=0;entryDy=0;" parent="1" source="Hybq58trlB87jNepz2p2-18" target="Hybq58trlB87jNepz2p2-8" edge="1">
          <mxGeometry relative="1" as="geometry">
            <Array as="points">
              <mxPoint x="660" y="500" />
              <mxPoint x="660" y="560" />
              <mxPoint x="580" y="560" />
            </Array>
          </mxGeometry>
        </mxCell>
        <mxCell id="Hybq58trlB87jNepz2p2-18" value="cocok" style="rhombus;whiteSpace=wrap;html=1;" parent="1" vertex="1">
          <mxGeometry x="520" y="480" width="120" height="40" as="geometry" />
        </mxCell>
        <mxCell id="Hybq58trlB87jNepz2p2-25" value="Y" style="text;html=1;align=center;verticalAlign=middle;resizable=0;points=[];autosize=1;strokeColor=none;" parent="1" vertex="1">
          <mxGeometry x="80" y="370" width="20" height="20" as="geometry" />
        </mxCell>
        <mxCell id="Hybq58trlB87jNepz2p2-27" value="N" style="text;html=1;align=center;verticalAlign=middle;resizable=0;points=[];autosize=1;strokeColor=none;" parent="1" vertex="1">
          <mxGeometry x="15" y="325" width="20" height="20" as="geometry" />
        </mxCell>
        <mxCell id="Hybq58trlB87jNepz2p2-35" value="Y" style="text;html=1;align=center;verticalAlign=middle;resizable=0;points=[];autosize=1;strokeColor=none;" parent="1" vertex="1">
          <mxGeometry x="80" y="520" width="20" height="20" as="geometry" />
        </mxCell>
        <mxCell id="Hybq58trlB87jNepz2p2-36" value="N" style="text;html=1;align=center;verticalAlign=middle;resizable=0;points=[];autosize=1;strokeColor=none;" parent="1" vertex="1">
          <mxGeometry x="160" y="480" width="20" height="20" as="geometry" />
        </mxCell>
        <mxCell id="Hybq58trlB87jNepz2p2-37" value="Y" style="text;html=1;align=center;verticalAlign=middle;resizable=0;points=[];autosize=1;strokeColor=none;" parent="1" vertex="1">
          <mxGeometry x="240" y="520" width="20" height="20" as="geometry" />
        </mxCell>
        <mxCell id="Hybq58trlB87jNepz2p2-39" value="Y" style="text;html=1;align=center;verticalAlign=middle;resizable=0;points=[];autosize=1;strokeColor=none;" parent="1" vertex="1">
          <mxGeometry x="400" y="520" width="20" height="20" as="geometry" />
        </mxCell>
        <mxCell id="Hybq58trlB87jNepz2p2-40" value="Y" style="text;html=1;align=center;verticalAlign=middle;resizable=0;points=[];autosize=1;strokeColor=none;" parent="1" vertex="1">
          <mxGeometry x="560" y="520" width="20" height="20" as="geometry" />
        </mxCell>
        <mxCell id="Hybq58trlB87jNepz2p2-47" value="N" style="text;html=1;align=center;verticalAlign=middle;resizable=0;points=[];autosize=1;strokeColor=none;" parent="1" vertex="1">
          <mxGeometry x="320" y="480" width="20" height="20" as="geometry" />
        </mxCell>
        <mxCell id="Hybq58trlB87jNepz2p2-48" value="N" style="text;html=1;align=center;verticalAlign=middle;resizable=0;points=[];autosize=1;strokeColor=none;" parent="1" vertex="1">
          <mxGeometry x="480" y="480" width="20" height="20" as="geometry" />
        </mxCell>
        <mxCell id="Hybq58trlB87jNepz2p2-50" value="N" style="text;html=1;align=center;verticalAlign=middle;resizable=0;points=[];autosize=1;strokeColor=none;" parent="1" vertex="1">
          <mxGeometry x="640" y="480" width="20" height="20" as="geometry" />
        </mxCell>
        <mxCell id="FpsX3NhUqObJQr1GBaPx-3" style="edgeStyle=orthogonalEdgeStyle;rounded=0;orthogonalLoop=1;jettySize=auto;html=1;entryX=0.5;entryY=0;entryDx=0;entryDy=0;" edge="1" parent="1" source="FpsX3NhUqObJQr1GBaPx-2" target="Hybq58trlB87jNepz2p2-5">
          <mxGeometry relative="1" as="geometry" />
        </mxCell>
        <mxCell id="FpsX3NhUqObJQr1GBaPx-2" value="start" style="html=1;dashed=0;whitespace=wrap;shape=mxgraph.dfd.start" vertex="1" parent="1">
          <mxGeometry x="60" y="90" width="80" height="30" as="geometry" />
        </mxCell>
        <mxCell id="FpsX3NhUqObJQr1GBaPx-4" value="end" style="html=1;dashed=0;whitespace=wrap;shape=mxgraph.dfd.start" vertex="1" parent="1">
          <mxGeometry x="60" y="630" width="80" height="30" as="geometry" />
        </mxCell>
      </root>
    </mxGraphModel>
  </diagram>
</mxfile>
